<svg width="641" height="192" viewBox="0 0 641 192" fill="none" xmlns="http://www.w3.org/2000/svg">
<path fill-rule="evenodd" clip-rule="evenodd" d="M604.869 61.392H622.192V84.4139H623.677V61.392H641V126.015H623.677V100.57H622.192V126.015H604.869V61.392ZM618.068 96.5307H627.802V121.976H636.876V65.431H627.802V88.4529H618.068V65.431H608.994V121.976H618.068V96.5307Z" fill="#EF4D2D"/>
<path fill-rule="evenodd" clip-rule="evenodd" d="M571.357 61.392H589.34C594.563 61.392 599.217 62.7776 602.504 66.2318C605.718 69.6094 606.993 74.229 606.993 79.4057V108.001C606.993 113.178 605.718 117.798 602.504 121.175C599.217 124.629 594.563 126.015 589.34 126.015H571.357V61.392ZM589.507 109.839C589.512 109.824 589.517 109.808 589.523 109.79C589.593 109.551 589.67 109.113 589.67 108.405V79.0018C589.67 78.2945 589.593 77.856 589.523 77.6171C589.517 77.599 589.512 77.5826 589.507 77.5679C589.433 77.5574 589.325 77.5478 589.175 77.5478H588.68V109.859H589.175C589.325 109.859 589.433 109.85 589.507 109.839ZM584.556 73.5088H589.175C590.66 73.5088 591.788 73.9397 592.557 74.8013C593.382 75.6629 593.795 77.0631 593.795 79.0018V108.405C593.795 110.344 593.382 111.744 592.557 112.606C591.788 113.467 590.66 113.898 589.175 113.898H584.556V73.5088ZM575.482 65.431V121.976H589.34C593.85 121.976 597.232 120.791 599.487 118.422C601.741 116.052 602.869 112.579 602.869 108.001V79.4057C602.869 74.8282 601.741 71.3547 599.487 68.9852C597.232 66.6157 593.85 65.431 589.34 65.431H575.482Z" fill="#EF4D2D"/>
<path fill-rule="evenodd" clip-rule="evenodd" d="M555.488 61.392H572.811V126.015H555.488V61.392ZM559.612 65.431V121.976H568.686V65.431H559.612Z" fill="#EF4D2D"/>
<path fill-rule="evenodd" clip-rule="evenodd" d="M527.132 61.392H544.455V109.859H559.385V126.015H527.132V65.5397L527.168 65.431H527.132V61.392ZM540.33 113.898V65.431H531.256V121.976H555.261V113.898H540.33Z" fill="#EF4D2D"/>
<path fill-rule="evenodd" clip-rule="evenodd" d="M516.197 97.904V121.976H507.123V97.904L496.152 65.431H505.803L511.99 86.1911H512.155L518.342 65.431H527.168L516.197 97.904ZM512.073 72.0505L508.896 61.392H490.443L502.999 98.5548V126.015H520.322V98.5548L531.256 66.1905V65.431H531.513L532.877 61.392H515.249L512.073 72.0505Z" fill="#EF4D2D"/>
<path fill-rule="evenodd" clip-rule="evenodd" d="M472.973 61.392H492.279L503.026 126.015H485.528L483.902 114.948H480.706L479.057 126.015H462.226L472.973 61.392ZM477.14 110.909H487.452V110.748L489.101 121.976H498.175L488.771 65.431H476.48L467.076 121.976H475.491L477.14 110.909ZM478.213 103.235H486.379L482.337 75.286H482.172L478.213 103.235Z" fill="#EF4D2D"/>
<path fill-rule="evenodd" clip-rule="evenodd" d="M437.005 121.872C433.782 118.416 432.461 113.781 432.461 108.567V78.8402C432.461 73.6413 433.775 69.014 437.02 65.5993C440.318 62.0722 444.914 60.5842 450.114 60.5842C455.315 60.5842 459.91 62.0722 463.209 65.5992C466.454 69.014 467.767 73.6413 467.767 78.8402V108.567C467.767 113.781 466.447 118.416 463.224 121.872L463.194 121.905C459.888 125.373 455.296 126.823 450.114 126.823C444.933 126.823 440.341 125.373 437.035 121.905L437.005 121.872ZM450.939 86.0295V78.2747C450.939 77.4014 450.818 76.955 450.747 76.7656C450.664 76.7525 450.539 76.7399 450.362 76.7399C450.185 76.7399 450.059 76.7525 449.977 76.7656C449.905 76.955 449.784 77.4014 449.784 78.2747V86.0295H450.939ZM449.784 102.185V109.213C449.784 110.028 449.894 110.454 449.962 110.64C450.048 110.654 450.178 110.667 450.362 110.667C450.546 110.667 450.676 110.654 450.762 110.64C450.83 110.454 450.939 110.028 450.939 109.213V102.185H449.784ZM460.178 68.339C457.869 65.8617 454.514 64.6231 450.114 64.6231C445.715 64.6231 442.36 65.8617 440.051 68.339C437.741 70.7623 436.586 74.2627 436.586 78.8402V108.567C436.586 113.144 437.741 116.671 440.051 119.149C442.36 121.572 445.715 122.784 450.114 122.784C454.514 122.784 457.869 121.572 460.178 119.149C462.488 116.671 463.643 113.144 463.643 108.567V90.0684H450.527V98.1463H455.064V109.213C455.064 112.875 453.497 114.706 450.362 114.706C447.227 114.706 445.66 112.875 445.66 109.213V78.2747C445.66 74.5589 447.227 72.701 450.362 72.701C453.497 72.701 455.064 74.5589 455.064 78.2747V83.6869H463.643V78.8402C463.643 74.2627 462.488 70.7623 460.178 68.339Z" fill="#EF4D2D"/>
<path fill-rule="evenodd" clip-rule="evenodd" d="M604.869 0.807785H622.192V23.8297H623.677V0.807785H641V65.4307H623.677V39.9854H622.192V65.4307H604.869V0.807785ZM618.068 35.9465H627.802V61.3917H636.876V4.84672H627.802V27.8686H618.068V4.84672H608.994V61.3917H618.068V35.9465Z" fill="#EF4D2D"/>
<path fill-rule="evenodd" clip-rule="evenodd" d="M571.357 0.807785H589.34C594.563 0.807785 599.217 2.19338 602.504 5.64754C605.718 9.02516 606.993 13.6447 606.993 18.8214V47.417C606.993 52.5937 605.718 57.2133 602.504 60.5909C599.217 64.0451 594.563 65.431 589.34 65.431L571.357 65.4307V0.807785ZM589.507 49.2548C589.512 49.2401 589.517 49.2237 589.523 49.2056C589.593 48.9667 589.67 48.5283 589.67 47.8209V18.4175C589.67 17.7102 589.593 17.2717 589.523 17.0328C589.517 17.0148 589.512 16.9984 589.507 16.9836C589.433 16.9731 589.325 16.9635 589.175 16.9635H588.68V49.275H589.175C589.325 49.275 589.433 49.2654 589.507 49.2548ZM584.556 12.9246H589.175C590.66 12.9246 591.788 13.3554 592.558 14.217C593.382 15.0787 593.795 16.4788 593.795 18.4175V47.8209C593.795 49.7596 593.382 51.1598 592.558 52.0214C591.788 52.8831 590.66 53.3139 589.175 53.3139H584.556V12.9246ZM575.482 4.84672V61.3917L589.34 61.392C593.85 61.392 597.232 60.207 599.487 57.8375C601.741 55.468 602.869 51.9945 602.869 47.417V18.8214C602.869 14.244 601.741 10.7705 599.487 8.40098C597.232 6.03147 593.85 4.84672 589.34 4.84672H575.482Z" fill="#EF4D2D"/>
<path fill-rule="evenodd" clip-rule="evenodd" d="M555.488 0.807785H572.811V65.4307H555.488V0.807785ZM559.612 4.84672V61.3917H568.686V4.84672H559.612Z" fill="#EF4D2D"/>
<path fill-rule="evenodd" clip-rule="evenodd" d="M527.132 0.807785H544.455V49.275H559.385V65.4307L527.132 65.431L527.132 4.95545L527.168 4.84672H527.132V0.807785ZM540.33 53.3139V4.84672H531.256V61.3917H555.261V53.3139H540.33Z" fill="#EF4D2D"/>
<path fill-rule="evenodd" clip-rule="evenodd" d="M516.197 37.3197V61.3917H507.123V37.3197L496.152 4.84672H505.803L511.99 25.6068H512.155L518.342 4.84672H527.168L516.197 37.3197ZM512.073 11.4663L508.896 0.807785H490.443L502.999 37.9705V65.4307H520.322V37.9705L531.256 5.60623V4.84672H531.513L532.877 0.807785H515.249L512.073 11.4663Z" fill="#EF4D2D"/>
<path fill-rule="evenodd" clip-rule="evenodd" d="M472.973 0.807785H492.279L503.026 65.4307H485.528L483.902 54.364H480.706L479.057 65.4307H462.226L472.973 0.807785ZM477.14 50.3251H487.452V50.1635L489.101 61.3917H498.175L488.772 4.84672H476.48L467.077 61.3917H475.491L477.14 50.3251ZM478.213 42.6511H486.379L482.337 14.7017H482.172L478.213 42.6511Z" fill="#EF4D2D"/>
<path fill-rule="evenodd" clip-rule="evenodd" d="M437.005 61.2878C433.782 57.8314 432.461 53.1963 432.461 47.9825V18.256C432.461 13.0571 433.775 8.42977 437.02 5.01505C440.318 1.48804 444.914 0 450.114 0C455.315 0 459.91 1.48803 463.209 5.01503C466.454 8.42975 467.767 13.0571 467.767 18.256V47.9825C467.767 53.1963 466.447 57.8314 463.224 61.2878L463.194 61.3205C459.888 64.7892 455.296 66.2385 450.114 66.2385C444.933 66.2385 440.341 64.789 437.035 61.3203L437.005 61.2878ZM450.939 25.4453V17.6905C450.939 16.8172 450.818 16.3708 450.747 16.1814C450.664 16.1683 450.539 16.1557 450.362 16.1557C450.185 16.1557 450.059 16.1683 449.977 16.1814C449.905 16.3708 449.784 16.8172 449.784 17.6905V25.4453H450.939ZM449.784 41.601V48.6287C449.784 49.4441 449.894 49.8694 449.962 50.0558C450.048 50.0696 450.178 50.0827 450.362 50.0827C450.546 50.0827 450.676 50.0695 450.762 50.0558C450.83 49.8694 450.939 49.4441 450.939 48.6287V41.601H449.784ZM460.178 7.75475C457.869 5.27754 454.514 4.03893 450.114 4.03893C445.715 4.03893 442.36 5.27754 440.051 7.75475C437.741 10.1781 436.586 13.6785 436.586 18.256V47.9825C436.586 52.56 437.741 56.0873 440.051 58.5645C442.36 60.9879 445.715 62.1995 450.114 62.1995C454.514 62.1995 457.869 60.9879 460.178 58.5645C462.488 56.0873 463.643 52.56 463.643 47.9825V29.4842H450.527V37.5621H455.064V48.6287C455.064 52.2907 453.497 54.1217 450.362 54.1217C447.227 54.1217 445.66 52.2907 445.66 48.6287V17.6905C445.66 13.9747 447.227 12.1168 450.362 12.1168C453.497 12.1168 455.064 13.9747 455.064 17.6905V23.1027H463.643V18.256C463.643 13.6785 462.488 10.1781 460.178 7.75475Z" fill="#EF4D2D"/>
<path fill-rule="evenodd" clip-rule="evenodd" d="M604.869 126.015H622.192L622.192 149.037H623.677L623.677 126.015H641L641 190.638H623.677V165.192H622.192V190.638H604.869V126.015ZM618.068 161.153H627.802V186.599H636.876V130.054H627.802V153.075H618.068V130.054H608.994V186.599H618.068V161.153Z" fill="#EF4D2D"/>
<path fill-rule="evenodd" clip-rule="evenodd" d="M571.357 126.015H589.34C594.563 126.015 599.217 127.4 602.504 130.854C605.718 134.232 606.993 138.852 606.993 144.028V172.624C606.993 177.801 605.718 182.42 602.504 185.798C599.217 189.252 594.563 190.638 589.34 190.638H571.357L571.357 126.015ZM589.507 174.462C589.512 174.447 589.517 174.431 589.523 174.413C589.593 174.174 589.67 173.735 589.67 173.028V143.624C589.67 142.917 589.593 142.479 589.523 142.24C589.517 142.222 589.512 142.205 589.507 142.191C589.433 142.18 589.325 142.17 589.175 142.17H588.68V174.482H589.175C589.325 174.482 589.433 174.472 589.507 174.462ZM584.556 138.131H589.175C590.66 138.131 591.788 138.562 592.558 139.424C593.382 140.286 593.795 141.686 593.795 143.624V173.028C593.795 174.966 593.382 176.367 592.558 177.228C591.788 178.09 590.66 178.521 589.175 178.521H584.556V138.131ZM575.482 130.054V186.599H589.34C593.85 186.599 597.232 185.414 599.487 183.044C601.741 180.675 602.869 177.201 602.869 172.624V144.028C602.869 139.451 601.741 135.977 599.487 133.608C597.232 131.238 593.85 130.054 589.34 130.054H575.482Z" fill="#EF4D2D"/>
<path fill-rule="evenodd" clip-rule="evenodd" d="M555.488 126.015H572.811L572.811 190.638H555.488L555.488 126.015ZM559.612 130.054V186.599H568.686V130.054H559.612Z" fill="#EF4D2D"/>
<path fill-rule="evenodd" clip-rule="evenodd" d="M527.132 126.015L544.455 126.015V174.482H559.385V190.638H527.132V130.162L527.168 130.054H527.132L527.132 126.015ZM540.33 178.521V130.054H531.256V186.599H555.261V178.521H540.33Z" fill="#EF4D2D"/>
<path fill-rule="evenodd" clip-rule="evenodd" d="M516.197 162.527V186.599H507.123V162.527L496.152 130.054H505.803L511.99 150.814H512.155L518.342 130.054H527.168L516.197 162.527ZM512.073 136.673L508.896 126.015H490.443L502.999 163.177V190.638H520.322V163.177L531.256 130.813V130.054H531.513L532.877 126.015H515.249L512.073 136.673Z" fill="#EF4D2D"/>
<path fill-rule="evenodd" clip-rule="evenodd" d="M472.973 126.015H492.279L503.026 190.638H485.528L483.902 179.571H480.706L479.057 190.638H462.226L472.973 126.015ZM477.14 175.532H487.452V175.37L489.101 186.599H498.175L488.772 130.054H476.48L467.077 186.599H475.491L477.14 175.532ZM478.213 167.858H486.379L482.337 139.909H482.172L478.213 167.858Z" fill="#EF4D2D"/>
<path fill-rule="evenodd" clip-rule="evenodd" d="M437.005 186.495C433.782 183.038 432.461 178.403 432.461 173.189V143.463C432.461 138.264 433.775 133.637 437.02 130.222C440.318 126.695 444.914 125.207 450.114 125.207C455.315 125.207 459.91 126.695 463.209 130.222C466.454 133.637 467.767 138.264 467.767 143.463V173.189C467.767 178.403 466.447 183.038 463.224 186.495L463.194 186.527C459.888 189.996 455.296 191.445 450.114 191.445C444.933 191.445 440.341 189.996 437.035 186.527L437.005 186.495ZM450.939 150.652V142.897C450.939 142.024 450.818 141.578 450.747 141.388C450.664 141.375 450.539 141.363 450.362 141.363C450.185 141.363 450.059 141.375 449.977 141.388C449.905 141.578 449.784 142.024 449.784 142.897V150.652H450.939ZM449.784 166.808V173.836C449.784 174.651 449.894 175.076 449.962 175.263C450.048 175.276 450.178 175.29 450.362 175.29C450.546 175.29 450.676 175.276 450.762 175.263C450.83 175.076 450.939 174.651 450.939 173.836V166.808H449.784ZM460.178 132.962C457.869 130.484 454.514 129.246 450.114 129.246C445.715 129.246 442.36 130.484 440.051 132.962C437.741 135.385 436.586 138.885 436.586 143.463V173.189C436.586 177.767 437.741 181.294 440.051 183.771C442.36 186.195 445.715 187.406 450.114 187.406C454.514 187.406 457.869 186.195 460.178 183.771C462.488 181.294 463.643 177.767 463.643 173.189V154.691H450.527V162.769H455.064V173.836C455.064 177.498 453.497 179.329 450.362 179.329C447.227 179.329 445.66 177.498 445.66 173.836V142.897C445.66 139.182 447.227 137.324 450.362 137.324C453.497 137.324 455.064 139.182 455.064 142.897V148.31H463.643V143.463C463.643 138.885 462.488 135.385 460.178 132.962Z" fill="#EF4D2D"/>
<path fill-rule="evenodd" clip-rule="evenodd" d="M172.408 61.392H189.731V84.4139H191.216V61.392H208.539V126.015H191.216V100.57H189.731V126.015H172.408V61.392ZM185.606 96.5307H195.34V121.976H204.414V65.431H195.34V88.4529H185.606V65.431H176.532V121.976H185.606V96.5307Z" fill="#EF4D2D"/>
<path fill-rule="evenodd" clip-rule="evenodd" d="M138.896 61.392H156.879C162.102 61.392 166.756 62.7776 170.043 66.2318C173.257 69.6094 174.532 74.229 174.532 79.4057V108.001C174.532 113.178 173.257 117.798 170.043 121.175C166.756 124.629 162.102 126.015 156.879 126.015H138.896V61.392ZM157.046 109.839C157.051 109.824 157.056 109.808 157.061 109.79C157.132 109.551 157.209 109.113 157.209 108.405V79.0018C157.209 78.2945 157.132 77.856 157.061 77.6171C157.056 77.599 157.051 77.5826 157.046 77.5679C156.972 77.5574 156.864 77.5478 156.714 77.5478H156.219V109.859H156.714C156.864 109.859 156.972 109.85 157.046 109.839ZM152.094 73.5088H156.714C158.199 73.5088 159.326 73.9397 160.096 74.8013C160.921 75.6629 161.333 77.0631 161.333 79.0018V108.405C161.333 110.344 160.921 111.744 160.096 112.606C159.326 113.467 158.199 113.898 156.714 113.898H152.094V73.5088ZM143.021 65.431V121.976H156.879C161.388 121.976 164.771 120.791 167.025 118.422C169.28 116.052 170.407 112.579 170.407 108.001V79.4057C170.407 74.8282 169.28 71.3547 167.025 68.9852C164.771 66.6157 161.388 65.431 156.879 65.431H143.021Z" fill="#EF4D2D"/>
<path fill-rule="evenodd" clip-rule="evenodd" d="M123.026 61.392H140.349V126.015H123.026V61.392ZM127.151 65.431V121.976H136.225V65.431H127.151Z" fill="#EF4D2D"/>
<path fill-rule="evenodd" clip-rule="evenodd" d="M94.6701 61.392H111.993V109.859H126.924V126.015H94.6701V65.5397L94.7069 65.431H94.6701V61.392ZM107.869 113.898V65.431H98.7946V121.976H122.799V113.898H107.869Z" fill="#EF4D2D"/>
<path fill-rule="evenodd" clip-rule="evenodd" d="M83.7356 97.904V121.976H74.6617V97.904L63.6904 65.431H73.3418L79.5286 86.1911H79.6936L85.8804 65.431H94.7069L83.7356 97.904ZM79.6111 72.0505L76.4347 61.392H57.9814L70.5371 98.5548V126.015H87.8601V98.5548L98.7946 66.1905V65.431H99.0513L100.416 61.392H82.7875L79.6111 72.0505Z" fill="#EF4D2D"/>
<path fill-rule="evenodd" clip-rule="evenodd" d="M40.5118 61.392H59.8172L70.5646 126.015H53.0665L51.4404 114.948H48.245L46.5952 126.015H29.7645L40.5118 61.392ZM44.6789 110.909H54.9902V110.748L56.64 121.976H65.714L56.3101 65.431H44.019L34.6151 121.976H43.0291L44.6789 110.909ZM45.7513 103.235H53.9179L49.8758 75.286H49.7108L45.7513 103.235Z" fill="#EF4D2D"/>
<path fill-rule="evenodd" clip-rule="evenodd" d="M4.54323 121.872C1.32046 118.416 0 113.781 0 108.567V78.8402C0 73.6413 1.31363 69.014 4.55852 65.5993C7.85697 62.0722 12.4525 60.5842 17.653 60.5842C22.8534 60.5842 27.449 62.0722 30.7474 65.5992C33.9923 69.014 35.306 73.6413 35.306 78.8402V108.567C35.306 113.781 33.9855 118.416 30.7627 121.872L30.7323 121.905C27.4262 125.373 22.8347 126.823 17.653 126.823C12.4713 126.823 7.8799 125.373 4.57387 121.905L4.54323 121.872ZM18.4779 86.0295V78.2747C18.4779 77.4014 18.357 76.955 18.2853 76.7656C18.2029 76.7525 18.0777 76.7399 17.9004 76.7399C17.7232 76.7399 17.598 76.7525 17.5156 76.7656C17.4439 76.955 17.323 77.4014 17.323 78.2747V86.0295H18.4779ZM17.323 102.185V109.213C17.323 110.028 17.4327 110.454 17.5006 110.64C17.5861 110.654 17.7161 110.667 17.9004 110.667C18.0848 110.667 18.2148 110.654 18.3003 110.64C18.3682 110.454 18.4779 110.028 18.4779 109.213V102.185H17.323ZM27.7168 68.339C25.4071 65.8617 22.0525 64.6231 17.653 64.6231C13.2535 64.6231 9.89887 65.8617 7.58913 68.339C5.27939 70.7623 4.12453 74.2627 4.12453 78.8402V108.567C4.12453 113.144 5.27939 116.671 7.58913 119.149C9.89887 121.572 13.2535 122.784 17.653 122.784C22.0525 122.784 25.4071 121.572 27.7168 119.149C30.0266 116.671 31.1814 113.144 31.1814 108.567V90.0684H18.0654V98.1463H22.6024V109.213C22.6024 112.875 21.0351 114.706 17.9004 114.706C14.7658 114.706 13.1985 112.875 13.1985 109.213V78.2747C13.1985 74.5589 14.7658 72.701 17.9004 72.701C21.0351 72.701 22.6024 74.5589 22.6024 78.2747V83.6869H31.1814V78.8402C31.1814 74.2627 30.0266 70.7623 27.7168 68.339Z" fill="#EF4D2D"/>
<path fill-rule="evenodd" clip-rule="evenodd" d="M172.408 0.807785H189.731V23.8297H191.216V0.807785H208.539V65.4307H191.216V39.9854H189.731V65.4307H172.408V0.807785ZM185.606 35.9465H195.34V61.3917H204.414V4.84672H195.34V27.8686H185.606V4.84672H176.532V61.3917H185.606V35.9465Z" fill="#EF4D2D"/>
<path fill-rule="evenodd" clip-rule="evenodd" d="M138.896 0.807785H156.879C162.102 0.807785 166.756 2.19338 170.043 5.64754C173.257 9.02516 174.532 13.6447 174.532 18.8214V47.417C174.532 52.5937 173.257 57.2133 170.043 60.5909C166.756 64.0451 162.102 65.431 156.879 65.431L138.896 65.4307V0.807785ZM157.046 49.2548C157.051 49.2401 157.056 49.2237 157.061 49.2056C157.132 48.9667 157.209 48.5283 157.209 47.8209V18.4175C157.209 17.7102 157.132 17.2717 157.061 17.0328C157.056 17.0148 157.051 16.9984 157.046 16.9836C156.972 16.9731 156.864 16.9635 156.714 16.9635H156.219V49.275H156.714C156.864 49.275 156.972 49.2654 157.046 49.2548ZM152.095 12.9246H156.714C158.199 12.9246 159.326 13.3554 160.096 14.217C160.921 15.0787 161.333 16.4788 161.333 18.4175V47.8209C161.333 49.7596 160.921 51.1598 160.096 52.0214C159.326 52.8831 158.199 53.3139 156.714 53.3139H152.095V12.9246ZM143.021 4.84672V61.3917L156.879 61.392C161.388 61.392 164.771 60.207 167.025 57.8375C169.28 55.468 170.407 51.9945 170.407 47.417V18.8214C170.407 14.244 169.28 10.7705 167.025 8.40098C164.771 6.03147 161.388 4.84672 156.879 4.84672H143.021Z" fill="#EF4D2D"/>
<path fill-rule="evenodd" clip-rule="evenodd" d="M123.026 0.807785H140.349V65.4307H123.026V0.807785ZM127.151 4.84672V61.3917H136.225V4.84672H127.151Z" fill="#EF4D2D"/>
<path fill-rule="evenodd" clip-rule="evenodd" d="M94.6701 0.807785H111.993V49.275H126.924V65.4307L94.6701 65.431L94.6701 4.95545L94.7069 4.84672H94.6701V0.807785ZM107.869 53.3139V4.84672H98.7947V61.3917H122.799V53.3139H107.869Z" fill="#EF4D2D"/>
<path fill-rule="evenodd" clip-rule="evenodd" d="M83.7356 37.3197V61.3917H74.6617V37.3197L63.6904 4.84672H73.3418L79.5286 25.6068H79.6936L85.8804 4.84672H94.7069L83.7356 37.3197ZM79.6111 11.4663L76.4347 0.807785H57.9814L70.5371 37.9705V65.4307H87.8602V37.9705L98.7947 5.60623V4.84672H99.0513L100.416 0.807785H82.7875L79.6111 11.4663Z" fill="#EF4D2D"/>
<path fill-rule="evenodd" clip-rule="evenodd" d="M40.5119 0.807785H59.8173L70.5646 65.4307H53.0665L51.4404 54.364H48.2451L46.5953 65.4307H29.7645L40.5119 0.807785ZM44.6789 50.3251H54.9903V50.1635L56.6401 61.3917H65.714L56.3101 4.84672H44.019L34.6151 61.3917H43.0291L44.6789 50.3251ZM45.7513 42.6511H53.9179L49.8758 14.7017H49.7109L45.7513 42.6511Z" fill="#EF4D2D"/>
<path fill-rule="evenodd" clip-rule="evenodd" d="M4.54323 61.2878C1.32046 57.8314 0 53.1963 0 47.9825V18.256C0 13.0571 1.31363 8.42977 4.55852 5.01505C7.85697 1.48804 12.4525 0 17.653 0C22.8534 0 27.449 1.48803 30.7474 5.01503C33.9923 8.42975 35.306 13.0571 35.306 18.256V47.9825C35.306 53.1963 33.9855 57.8314 30.7627 61.2878L30.7323 61.3205C27.4262 64.7892 22.8347 66.2385 17.653 66.2385C12.4713 66.2385 7.8799 64.789 4.57387 61.3203L4.54323 61.2878ZM18.4779 25.4453V17.6905C18.4779 16.8172 18.357 16.3708 18.2853 16.1814C18.2029 16.1683 18.0777 16.1557 17.9004 16.1557C17.7232 16.1557 17.598 16.1683 17.5156 16.1814C17.4439 16.3708 17.323 16.8172 17.323 17.6905V25.4453H18.4779ZM17.323 41.601V48.6287C17.323 49.4441 17.4327 49.8694 17.5006 50.0558C17.5861 50.0696 17.7161 50.0827 17.9004 50.0827C18.0848 50.0827 18.2148 50.0695 18.3003 50.0558C18.3682 49.8694 18.4779 49.4441 18.4779 48.6287V41.601H17.323ZM27.7168 7.75475C25.4071 5.27754 22.0525 4.03893 17.653 4.03893C13.2535 4.03893 9.89887 5.27754 7.58913 7.75475C5.27939 10.1781 4.12453 13.6785 4.12453 18.256V47.9825C4.12453 52.56 5.27939 56.0873 7.58913 58.5645C9.89887 60.9879 13.2535 62.1995 17.653 62.1995C22.0525 62.1995 25.4071 60.9879 27.7168 58.5645C30.0266 56.0873 31.1814 52.56 31.1814 47.9825V29.4842H18.0654V37.5621H22.6024V48.6287C22.6024 52.2907 21.0351 54.1217 17.9004 54.1217C14.7658 54.1217 13.1985 52.2907 13.1985 48.6287V17.6905C13.1985 13.9747 14.7658 12.1168 17.9004 12.1168C21.0351 12.1168 22.6024 13.9747 22.6024 17.6905V23.1027H31.1814V18.256C31.1814 13.6785 30.0266 10.1781 27.7168 7.75475Z" fill="#EF4D2D"/>
<path fill-rule="evenodd" clip-rule="evenodd" d="M172.408 126.015H189.731L189.731 149.037H191.216L191.216 126.015H208.539L208.539 190.638H191.216V165.192H189.731V190.638H172.408V126.015ZM185.606 161.153H195.34V186.599H204.414V130.054H195.34V153.075H185.606V130.054H176.532V186.599H185.606V161.153Z" fill="#EF4D2D"/>
<path fill-rule="evenodd" clip-rule="evenodd" d="M138.896 126.015H156.879C162.102 126.015 166.756 127.4 170.043 130.854C173.257 134.232 174.532 138.852 174.532 144.028V172.624C174.532 177.801 173.257 182.42 170.043 185.798C166.756 189.252 162.102 190.638 156.879 190.638H138.896L138.896 126.015ZM157.046 174.462C157.051 174.447 157.056 174.431 157.061 174.413C157.132 174.174 157.209 173.735 157.209 173.028V143.624C157.209 142.917 157.132 142.479 157.061 142.24C157.056 142.222 157.051 142.205 157.046 142.191C156.972 142.18 156.864 142.17 156.714 142.17H156.219V174.482H156.714C156.864 174.482 156.972 174.472 157.046 174.462ZM152.095 138.131H156.714C158.199 138.131 159.326 138.562 160.096 139.424C160.921 140.286 161.333 141.686 161.333 143.624V173.028C161.333 174.966 160.921 176.367 160.096 177.228C159.326 178.09 158.199 178.521 156.714 178.521H152.095V138.131ZM143.021 130.054V186.599H156.879C161.388 186.599 164.771 185.414 167.025 183.044C169.28 180.675 170.407 177.201 170.407 172.624V144.028C170.407 139.451 169.28 135.977 167.025 133.608C164.771 131.238 161.388 130.054 156.879 130.054H143.021Z" fill="#EF4D2D"/>
<path fill-rule="evenodd" clip-rule="evenodd" d="M123.026 126.015H140.349L140.349 190.638H123.026L123.026 126.015ZM127.151 130.054V186.599H136.225V130.054H127.151Z" fill="#EF4D2D"/>
<path fill-rule="evenodd" clip-rule="evenodd" d="M94.6701 126.015L111.993 126.015V174.482H126.924V190.638H94.6701V130.162L94.7069 130.054H94.6701L94.6701 126.015ZM107.869 178.521V130.054H98.7947V186.599H122.799V178.521H107.869Z" fill="#EF4D2D"/>
<path fill-rule="evenodd" clip-rule="evenodd" d="M83.7356 162.527V186.599H74.6617V162.527L63.6904 130.054H73.3418L79.5286 150.814H79.6936L85.8804 130.054H94.7069L83.7356 162.527ZM79.6111 136.673L76.4347 126.015H57.9814L70.5371 163.177V190.638H87.8602V163.177L98.7947 130.813V130.054H99.0513L100.416 126.015H82.7875L79.6111 136.673Z" fill="#EF4D2D"/>
<path fill-rule="evenodd" clip-rule="evenodd" d="M40.5119 126.015H59.8173L70.5646 190.638H53.0665L51.4404 179.571H48.2451L46.5953 190.638H29.7645L40.5119 126.015ZM44.6789 175.532H54.9903V175.37L56.6401 186.599H65.714L56.3101 130.054H44.019L34.6151 186.599H43.0291L44.6789 175.532ZM45.7513 167.858H53.9179L49.8758 139.909H49.7109L45.7513 167.858Z" fill="#EF4D2D"/>
<path fill-rule="evenodd" clip-rule="evenodd" d="M4.54323 186.495C1.32046 183.038 0 178.403 0 173.189V143.463C0 138.264 1.31363 133.637 4.55852 130.222C7.85697 126.695 12.4525 125.207 17.653 125.207C22.8534 125.207 27.449 126.695 30.7474 130.222C33.9923 133.637 35.306 138.264 35.306 143.463V173.189C35.306 178.403 33.9855 183.038 30.7627 186.495L30.7323 186.527C27.4262 189.996 22.8347 191.445 17.653 191.445C12.4713 191.445 7.8799 189.996 4.57387 186.527L4.54323 186.495ZM18.4779 150.652V142.897C18.4779 142.024 18.357 141.578 18.2853 141.388C18.2029 141.375 18.0777 141.363 17.9004 141.363C17.7232 141.363 17.598 141.375 17.5156 141.388C17.4439 141.578 17.323 142.024 17.323 142.897V150.652H18.4779ZM17.323 166.808V173.836C17.323 174.651 17.4327 175.076 17.5006 175.263C17.5861 175.276 17.7161 175.29 17.9004 175.29C18.0848 175.29 18.2148 175.276 18.3003 175.263C18.3682 175.076 18.4779 174.651 18.4779 173.836V166.808H17.323ZM27.7168 132.962C25.4071 130.484 22.0525 129.246 17.653 129.246C13.2535 129.246 9.89887 130.484 7.58913 132.962C5.27939 135.385 4.12453 138.885 4.12453 143.463V173.189C4.12453 177.767 5.27939 181.294 7.58913 183.771C9.89887 186.195 13.2535 187.406 17.653 187.406C22.0525 187.406 25.4071 186.195 27.7168 183.771C30.0266 181.294 31.1814 177.767 31.1814 173.189V154.691H18.0654V162.769H22.6024V173.836C22.6024 177.498 21.0351 179.329 17.9004 179.329C14.7658 179.329 13.1985 177.498 13.1985 173.836V142.897C13.1985 139.182 14.7658 137.324 17.9004 137.324C21.0351 137.324 22.6024 139.182 22.6024 142.897V148.31H31.1814V143.463C31.1814 138.885 30.0266 135.385 27.7168 132.962Z" fill="#EF4D2D"/>
<path d="M393.413 0.843423H402.783V24.8795H412.835V0.843423H422.205V59.8794H412.835V33.3132H402.783V59.8794H393.413V0.843423Z" fill="#EF4D2D"/>
<path d="M358.807 0.843423H373.118C377.775 0.843423 381.267 2.08037 383.596 4.55426C385.924 7.02815 387.088 10.6546 387.088 15.4338V45.2891C387.088 50.0682 385.924 53.6947 383.596 56.1686C381.267 58.6425 377.775 59.8794 373.118 59.8794H358.807V0.843423ZM372.948 51.4457C374.481 51.4457 375.645 50.9959 376.44 50.0963C377.292 49.1967 377.718 47.7349 377.718 45.7108V15.0121C377.718 12.988 377.292 11.5261 376.44 10.6265C375.645 9.72694 374.481 9.27714 372.948 9.27714H368.177V51.4457H372.948Z" fill="#EF4D2D"/>
<path d="M342.419 0.843423H351.789V59.8794H342.419V0.843423Z" fill="#EF4D2D"/>
<path d="M313.137 0.843423H322.507V51.4457H337.926V59.8794H313.137V0.843423Z" fill="#EF4D2D"/>
<path d="M288.216 34.747L276.887 0.843423H286.853L293.242 22.5181H293.412L299.801 0.843423H308.916L297.586 34.747V59.8794H288.216V34.747Z" fill="#EF4D2D"/>
<path d="M256.573 0.843423H269.265L278.976 59.8794H269.606L267.902 48.1566V48.3252H257.254L255.551 59.8794H246.862L256.573 0.843423ZM266.795 40.3132L262.621 11.1326H262.451L258.362 40.3132H266.795Z" fill="#EF4D2D"/>
<path d="M229.346 60.7228C224.803 60.7228 221.339 59.4577 218.954 56.9276C216.569 54.3412 215.376 50.6585 215.376 45.8794V14.8433C215.376 10.0642 216.569 6.40962 218.954 3.87951C221.339 1.29317 224.803 0 229.346 0C233.889 0 237.353 1.29317 239.739 3.87951C242.124 6.40962 243.316 10.0642 243.316 14.8433V19.9036H234.457V14.253C234.457 10.3735 232.839 8.43372 229.602 8.43372C226.365 8.43372 224.746 10.3735 224.746 14.253V46.5541C224.746 50.3774 226.365 52.289 229.602 52.289C232.839 52.289 234.457 50.3774 234.457 46.5541V34.9999H229.772V26.5662H243.316V45.8794C243.316 50.6585 242.124 54.3412 239.739 56.9276C237.353 59.4577 233.889 60.7228 229.346 60.7228Z" fill="#EF4D2D"/>
<path d="M393.413 64.0963H402.783V88.1324H412.835V64.0963H422.205V123.132H412.835V96.5661H402.783V123.132H393.413V64.0963Z" fill="#EF4D2D"/>
<path d="M358.807 64.0963H373.118C377.775 64.0963 381.267 65.3332 383.596 67.8071C385.924 70.281 387.088 73.9075 387.088 78.6866V108.542C387.088 113.321 385.924 116.948 383.596 119.421C381.267 121.895 377.775 123.132 373.118 123.132H358.807V64.0963ZM372.948 114.699C374.481 114.699 375.645 114.249 376.44 113.349C377.292 112.45 377.718 110.988 377.718 108.964V78.2649C377.718 76.2408 377.292 74.779 376.44 73.8794C375.645 72.9798 374.481 72.53 372.948 72.53H368.177V114.699H372.948Z" fill="#EF4D2D"/>
<path d="M342.419 64.0963H351.789V123.132H342.419V64.0963Z" fill="#EF4D2D"/>
<path d="M313.137 64.0963H322.507V114.699H337.926V123.132H313.137V64.0963Z" fill="#EF4D2D"/>
<path d="M288.216 97.9998L276.887 64.0963H286.853L293.242 85.7709H293.412L299.801 64.0963H308.916L297.586 97.9998V123.132H288.216V97.9998Z" fill="#EF4D2D"/>
<path d="M256.573 64.0963H269.265L278.976 123.132H269.606L267.902 111.409V111.578H257.254L255.551 123.132H246.862L256.573 64.0963ZM266.795 103.566L262.621 74.3854H262.451L258.362 103.566H266.795Z" fill="#EF4D2D"/>
<path d="M229.346 123.976C224.803 123.976 221.339 122.711 218.954 120.18C216.569 117.594 215.376 113.911 215.376 109.132V78.0962C215.376 73.3171 216.569 69.6625 218.954 67.1324C221.339 64.546 224.803 63.2529 229.346 63.2529C233.889 63.2529 237.353 64.546 239.739 67.1324C242.124 69.6625 243.316 73.3171 243.316 78.0962V83.1564H234.457V77.5058C234.457 73.6263 232.839 71.6866 229.602 71.6866C226.365 71.6866 224.746 73.6263 224.746 77.5058V109.807C224.746 113.63 226.365 115.542 229.602 115.542C232.839 115.542 234.457 113.63 234.457 109.807V98.2528H229.772V89.8191H243.316V109.132C243.316 113.911 242.124 117.594 239.739 120.18C237.353 122.711 233.889 123.976 229.346 123.976Z" fill="#EF4D2D"/>
<path d="M393.413 131.566H402.783V155.602H412.835V131.566H422.205V190.602H412.835V164.036H402.783V190.602H393.413V131.566Z" fill="#EF4D2D"/>
<path d="M358.807 131.566H373.118C377.775 131.566 381.267 132.803 383.596 135.277C385.924 137.751 387.088 141.377 387.088 146.156V176.012C387.088 180.791 385.924 184.417 383.596 186.891C381.267 189.365 377.775 190.602 373.118 190.602H358.807V131.566ZM372.948 182.168C374.481 182.168 375.645 181.718 376.44 180.819C377.292 179.919 377.718 178.457 377.718 176.433V145.735C377.718 143.711 377.292 142.249 376.44 141.349C375.645 140.45 374.481 140 372.948 140H368.177V182.168H372.948Z" fill="#EF4D2D"/>
<path d="M342.419 131.566H351.789V190.602H342.419V131.566Z" fill="#EF4D2D"/>
<path d="M313.137 131.566H322.507V182.168H337.926V190.602H313.137V131.566Z" fill="#EF4D2D"/>
<path d="M288.216 165.47L276.887 131.566H286.853L293.242 153.241H293.412L299.801 131.566H308.916L297.586 165.47V190.602H288.216V165.47Z" fill="#EF4D2D"/>
<path d="M256.573 131.566H269.265L278.976 190.602H269.606L267.902 178.879V179.048H257.254L255.551 190.602H246.862L256.573 131.566ZM266.795 171.036L262.621 141.855H262.451L258.362 171.036H266.795Z" fill="#EF4D2D"/>
<path d="M229.346 191.445C224.803 191.445 221.339 190.18 218.954 187.65C216.569 185.064 215.376 181.381 215.376 176.602V145.566C215.376 140.787 216.569 137.132 218.954 134.602C221.339 132.016 224.803 130.723 229.346 130.723C233.889 130.723 237.353 132.016 239.739 134.602C242.124 137.132 243.316 140.787 243.316 145.566V150.626H234.457V144.976C234.457 141.096 232.839 139.156 229.602 139.156C226.365 139.156 224.746 141.096 224.746 144.976V177.277C224.746 181.1 226.365 183.012 229.602 183.012C232.839 183.012 234.457 181.1 234.457 177.277V165.722H229.772V157.289H243.316V176.602C243.316 181.381 242.124 185.064 239.739 187.65C237.353 190.18 233.889 191.445 229.346 191.445Z" fill="#EF4D2D"/>
</svg>
