<svg id="holding-page-animation" data-name="Layer 1" xmlns="http://www.w3.org/2000/svg" viewBox="0 0 533.824 533.824"><path d="M362.486,260.758c-4.93,17.157-9.96,34.291-15.316,51.319-3.252,10.336-2.288,19.725,3,29.286,3.8,6.863,6.207,14.514,9.023,21.9,4.46,11.687,14.017,19.86,20.408,30.161,3.039,4.9,15.443,6.293,21.089,6.689a24.288,24.288,0,0,1,18.554,11.169l-3.118,1.29c2.2-6.994,2.4-14.1,3.478-21.28q1.761-11.736,2.829-23.557a423.857,423.857,0,0,0,1.63-47.994c-.338-14.837-1.024-29.683-2.179-44.476-.431-5.518-2.71-10.881-4.03-16.344-1.761-7.289-3.441-14.6-5.1-21.913-4.74-20.943-9.363-41.912-14.215-62.829-1.533-6.61-3.364-13.145-5.132-19.7-.789-2.926-1.724-5.946-1.625-9.011.1-3.019,1.573-5.461,2.571-8.219,2.285,1.359,5.162,2.225,6.764,4.152,16.9,20.342,28.957,43.4,37.3,68.419,2.75,8.244,4.645,16.775,7.458,24.994,3.338,9.755,7.5,19.228,10.849,28.98a96.831,96.831,0,0,1,4.07,16.279c2.825,17.754,5.3,35.564,7.942,53.349,1.829,12.319,3.9,24.6,5.5,36.953,1.415,10.973,2.507,22,3.392,33.025.86,10.722,2.106,21.514,1.66,32.211-.473,11.318,2.911,23.265-4.041,33.874-1.208,1.842-1.982,3.965-3.134,5.849-7.168,11.723-13.786,23.846-21.781,34.977-6.177,8.6-15.838,12.609-26.421,13.686-3.933.4-9.16-6.124-9.544-11.8-.208-3.064-.033-6.154-.055-9.232-.074-10.225-.179-20.45-.217-30.675a18.967,18.967,0,0,1,.429-4.066c2.13-9.929-.215-19.8-1.334-29.691a2.621,2.621,0,0,0-1.733-2.435,3.241,3.241,0,0,0-1.387.128c-6.827,1.649-9.738,6.21-15.535,9.42-5.406,2.994-11.453,4.837-16.728,8.055a81.443,81.443,0,0,0-25.863,25.061c-4.079,6.149-8.176,13.031-15.61,16.075-4.285,1.755-9.07,2.059-13.613,2.712a2.917,2.917,0,0,1-1.22,0,4.112,4.112,0,0,1-1.445-1.073,19.228,19.228,0,0,0-3.712-2.078c-3.188-1.754-3.219-5.572-3.189-8.806.154-16.508,4.439-32.062,11.486-46.915,3.7-7.789,3.369-7.551-2.043-14.422-3.814-4.842-8.982-8.238-12.848-12.487-5.824-6.4-9.021-15.27-12.96-23.275-1.308-2.659-1.047-6.064-2.219-8.823-3.857-9.082-4.7-9.011-13.9-6.17-9.948,3.073-20.178,4.209-30.561,1.686-3.607-.876-7.334-1.256-12.559-2.119.787,3.144.778,5.884,2.059,7.724,4.281,6.142,8.922,12.045,13.615,17.887,6.829,8.5,4.331,16.731-7.008,22.549-5.275,2.7-9.4,1.982-15.017.784-4.715-1-9.585-1.077-14.322-1.97-6.162-1.161-13.708-3.691-17.891-8.62-8.962-10.559-16.966-21.578-17.354-36.565-.414-16.015-3.281-32.059-2.6-47.985.75-17.65,4.788-35.134,6.482-52.778a453.01,453.01,0,0,0,2.216-45.988c-.066-10.548-.965-21.015-1.971-31.506-.948-9.9-.743-19.154-7.58-27.141-3.982-4.651-9.056-8.216-14.047-11.756a10.132,10.132,0,0,0-3.739-1.541c-5.792-.791-11.609.928-17.976-.666-6.174-1.546-12.1-4-18.294-5.454-7.726-1.816-17.875-2.8-14.77-10.8.46,1.074-.21,4.528-.46,6.593-3.322,27.492,1.744,46.874,4.427,74.436,2.776,28.514,5.56,56.148,13.665,83.772,8.673,29.558,20.355,58.126,29.194,87.632a8.2,8.2,0,0,1,.151,4.462c-1.067,3.975-4.553,4.19-7.463,3.607-9.3-1.864-15.86-9.994-21.258-17.79-24.728-35.717-42.535-75.974-54.581-117.711A484.945,484.945,0,0,1,54.35,146.893c-.994-28.383.8-57.964,14.281-82.959,11.09-20.559,29.211-36.355,47.819-50.476,3.23-2.451,6.751-4.984,11.587-2.842a11.182,11.182,0,0,1,6.25,8.039c1.465,7.052-2.107,13.543-5.575,19.533-14.888,25.71-20.366,44.97-18.284,74.032,6.321-12.472,16.655-14.579,30.909-19.685C151.2,89,160.329,83.987,167.972,75.856c7.618-8.1,17.734-13.8,26.019-21.358,6.268-5.717,11.621-12.51,16.931-19.183,4.391-5.518,8.256-5.738,10.761.835a41.573,41.573,0,0,1,2.864,15.983c-.591,14.959-6.6,28.163-15.957,39.613-5.91,7.233-12.806,13.66-20,21.226,1.8,1.36,3.253,2.886,5.032,3.744,12.444,6,23.716,13.74,32.479,24.391,3.644,4.429,5.682,10.346,7.778,15.843,3,7.855,5.372,15.945,8.215,24.545,2.47-1.91,4.355-3.618,6.471-4.962,10.056-6.384,20.166-12.671,32.443-13.917,2.59-.263,5.245-1.334,7.71-.965,2.5.373,4.8,2.069,7.438,3.306.326-12.037-7.341-18.131-19.865-16.57-8.27,1.031-11.162-2.04-11.15-10.317.019-13.923,8.686-21.24,19.638-26.908,3.466-1.793,7.42-2.626,10.94-4.333,10.678-5.179,18.976.015,26.482,6.476a190.413,190.413,0,0,1,21.243,21.035c3.175,3.753,4.423,9.279,6.054,14.165,2.207,6.615,5.112,13.1,6.548,19.95.607,2.9-.048,5.716.081,8.657a49.649,49.649,0,0,0,1.861,10.729c1.421,5.257,3.3,10.414,4.245,15.79.928,5.278.325,10.583.5,15.91.236,7.322.62,14.707-.1,21.961m-92.762-35.157q-.813.072-1.619.215c-9.469,1.685-22.263,10.261-21.947,20.894.284,9.529.686,19.083.313,28.6a294.813,294.813,0,0,1-8.873,60.955,11.773,11.773,0,0,0-.2,6c4.541,14.866,13.457,18.843,27.567,12.513.623-.28,1.232-.593,1.837-.91,5.687-2.977,10.228-6.628,9.843-14.023a32.692,32.692,0,0,1,.908-9.635c3.107-12.214,6.327-24.4,9.516-36.591,2.992-11.438,7.379-21.285,6.3-33.484-.254-2.887-.733-5.754-.844-8.65-.313-8.192,1.675-20.147-7.858-24.151a25.414,25.414,0,0,0-7.478-1.517,40.066,40.066,0,0,0-7.474-.217Z" fill="#010101"/></svg>